<svg xmlns="http://www.w3.org/2000/svg" xmlns:xlink="http://www.w3.org/1999/xlink" width="586.247" height="781.83" viewBox="0 0 586.247 781.83">
  <defs>
    <clipPath id="clip-path">
      <path id="Caminho_18" data-name="Caminho 18" d="M264.124,1520.118a65.162,65.162,0,0,0,65.125,65.142V1454.946a65.17,65.17,0,0,0-65.125,65.172M557.217,1389.8a65.165,65.165,0,0,1-65.125-65.143,130.238,130.238,0,0,1-130.281,130.285H329.249a65.157,65.157,0,0,1,0,130.314h32.563a260.655,260.655,0,0,0,260.561-260.6,65.172,65.172,0,0,1-65.156,65.143m-65.125-65.143h130.28a65.14,65.14,0,1,0-130.28,0m0-260.631a65.14,65.14,0,1,0,130.28,0ZM124.979,868.116c-.762.732-1.553,1.372-2.345,2.1a24.233,24.233,0,0,0-2.224,2.13h-.061v-.06c-2.65,2.406-5.331,4.967-7.859,7.494A259.433,259.433,0,0,0,36.216,1060.71c-.091,1.128-.091,2.226-.091,3.321v260.631a65.14,65.14,0,1,0,130.281,0H36.125a65.14,65.14,0,1,1,130.281,0V1064.03a129.774,129.774,0,0,1,42.554-96.28c.457-.4.822-.729,1.218-1.127.792-.7,1.554-1.433,2.285-2.133v-.061a65.134,65.134,0,0,0-87.483-96.312m204.27-64.685a65.157,65.157,0,0,1,0,130.314h32.563A130.332,130.332,0,0,1,492.092,1064.03a65.152,65.152,0,0,1,130.22-3.321c-1.767-142.41-117.7-257.279-260.5-257.279Z" transform="translate(-36.125 -803.431)" fill="#642500"/>
    </clipPath>
  </defs>
  <g id="Grupo_10" data-name="Grupo 10" style="mix-blend-mode: normal;isolation: isolate">
    <g id="Grupo_7" data-name="Grupo 7">
      <g id="Grupo_6" data-name="Grupo 6">
        <path id="Caminho_17" data-name="Caminho 17" d="M264.124,1520.118a65.162,65.162,0,0,0,65.125,65.142V1454.946a65.17,65.17,0,0,0-65.125,65.172M557.217,1389.8a65.165,65.165,0,0,1-65.125-65.143,130.238,130.238,0,0,1-130.281,130.285H329.249a65.157,65.157,0,0,1,0,130.314h32.563a260.655,260.655,0,0,0,260.561-260.6,65.172,65.172,0,0,1-65.156,65.143m-65.125-65.143h130.28a65.14,65.14,0,1,0-130.28,0m0-260.631a65.14,65.14,0,1,0,130.28,0ZM124.979,868.116c-.762.732-1.553,1.372-2.345,2.1a24.233,24.233,0,0,0-2.224,2.13h-.061v-.06c-2.65,2.406-5.331,4.967-7.859,7.494A259.433,259.433,0,0,0,36.216,1060.71c-.091,1.128-.091,2.226-.091,3.321v260.631a65.14,65.14,0,1,0,130.281,0H36.125a65.14,65.14,0,1,1,130.281,0V1064.03a129.774,129.774,0,0,1,42.554-96.28c.457-.4.822-.729,1.218-1.127.792-.7,1.554-1.433,2.285-2.133v-.061a65.134,65.134,0,0,0-87.483-96.312m204.27-64.685a65.157,65.157,0,0,1,0,130.314h32.563A130.332,130.332,0,0,1,492.092,1064.03a65.152,65.152,0,0,1,130.22-3.321c-1.767-142.41-117.7-257.279-260.5-257.279Z" transform="translate(-36.125 -803.431)" fill="#642500"/>
      </g>
    </g>
  </g>
</svg>
