<svg id="Grupo_9" data-name="Grupo 9" xmlns="http://www.w3.org/2000/svg" xmlns:xlink="http://www.w3.org/1999/xlink" width="181.349" height="60.3" viewBox="0 0 181.349 60.3">
  <defs>
    <clipPath id="clip-path">
      <path id="Caminho_18" data-name="Caminho 18" d="M53.715,858.706a5.026,5.026,0,0,0,5.024,5.024V853.679a5.027,5.027,0,0,0-5.024,5.027m22.611-10.051a5.027,5.027,0,0,1-5.024-5.024,10.046,10.046,0,0,1-10.051,10.049H58.739a5.025,5.025,0,0,1,0,10.051h2.512a20.106,20.106,0,0,0,20.1-20.1,5.027,5.027,0,0,1-5.027,5.024M71.3,843.631H81.353a5.025,5.025,0,1,0-10.051,0m0-20.1a5.025,5.025,0,1,0,10.051,0ZM42.98,808.419c-.059.056-.12.106-.181.162a1.876,1.876,0,0,0-.172.164h0v0c-.2.186-.411.383-.606.578a20.007,20.007,0,0,0-5.884,13.954c-.007.087-.007.172-.007.256v20.1a5.025,5.025,0,0,0,10.051,0H36.125a5.025,5.025,0,1,1,10.051,0v-20.1a10.008,10.008,0,0,1,3.283-7.426c.035-.031.063-.056.094-.087.061-.054.12-.111.176-.164v0a5.024,5.024,0,0,0-6.749-7.428m15.759-4.989a5.025,5.025,0,0,1,0,10.051h2.512A10.053,10.053,0,0,1,71.3,823.529a5.026,5.026,0,0,1,10.046-.256,20.1,20.1,0,0,0-20.1-19.843Z" transform="translate(-36.125 -803.43)" fill="#de4300"/>
    </clipPath>
  </defs>
  <g id="Grupo_4" data-name="Grupo 4" transform="translate(61.851 11.435)">
    <g id="Grupo_3" data-name="Grupo 3">
      <g id="Grupo_1" data-name="Grupo 1" transform="translate(14.579 31.727)">
        <path id="Caminho_1" data-name="Caminho 1" d="M72.5,825.8a1.546,1.546,0,0,1-1.605,1.553H68.649v-5.513h2.073a1.35,1.35,0,0,1,1.488,1.408,1.152,1.152,0,0,1-.7,1.168A1.369,1.369,0,0,1,72.5,825.8m-1.791-3.288H69.377v1.624h1.358a.814.814,0,0,0-.024-1.624m.033,4.169a.933.933,0,0,0,1.032-.945.921.921,0,0,0-.992-.959H69.377v1.9Z" transform="translate(-68.649 -821.742)" fill="#de4300"/>
        <rect id="Ret창ngulo_2" data-name="Ret창ngulo 2" width="0.728" height="5.511" transform="translate(7.908 0.097)" fill="#de4300"/>
        <path id="Caminho_2" data-name="Caminho 2" d="M74.036,824.661a2.791,2.791,0,1,1,2.782,2.839,2.814,2.814,0,0,1-2.782-2.839m4.855,0a2.067,2.067,0,1,0-2.073,2.167,2.132,2.132,0,0,0,2.073-2.167" transform="translate(-61.377 -821.797)" fill="#de4300"/>
        <path id="Caminho_3" data-name="Caminho 3" d="M81.849,821.838v.672h-1.68v4.839h-.728V822.51h-1.68v-.672Z" transform="translate(-56.347 -821.741)" fill="#de4300"/>
        <path id="Caminho_4" data-name="Caminho 4" d="M81.84,826.678h2.608v.672H81.12v-5.511h3.248v.672H81.84V824.3h2.208v.68H81.84Z" transform="translate(-51.813 -821.742)" fill="#de4300"/>
        <path id="Caminho_5" data-name="Caminho 5" d="M84.04,824.661a2.837,2.837,0,0,1,2.8-2.865,2.688,2.688,0,0,1,2.073.938l-.529.447a2.043,2.043,0,0,0-1.544-.712,2.182,2.182,0,0,0,0,4.359,2.041,2.041,0,0,0,1.544-.71l.529.446a2.687,2.687,0,0,1-2.073.935,2.814,2.814,0,0,1-2.8-2.839" transform="translate(-47.872 -821.797)" fill="#de4300"/>
        <path id="Caminho_6" data-name="Caminho 6" d="M91.02,821.838h.728v5.511h-.7l-2.544-4.2v4.2h-.728v-5.511h.72l2.528,4.183Z" transform="translate(-42.833 -821.741)" fill="#de4300"/>
        <path id="Caminho_7" data-name="Caminho 7" d="M91.175,824.661A2.792,2.792,0,1,1,93.96,827.5a2.816,2.816,0,0,1-2.785-2.839m4.855,0a2.066,2.066,0,1,0-2.07,2.167,2.13,2.13,0,0,0,2.07-2.167" transform="translate(-38.24 -821.797)" fill="#de4300"/>
        <path id="Caminho_8" data-name="Caminho 8" d="M96,826.678h2.256v.672H95.269v-5.511H96Z" transform="translate(-32.713 -821.742)" fill="#de4300"/>
        <path id="Caminho_9" data-name="Caminho 9" d="M97.868,824.661a2.792,2.792,0,1,1,2.785,2.839,2.816,2.816,0,0,1-2.785-2.839m4.855,0a2.066,2.066,0,1,0-2.07,2.167,2.13,2.13,0,0,0,2.07-2.167" transform="translate(-29.204 -821.797)" fill="#de4300"/>
        <path id="Caminho_10" data-name="Caminho 10" d="M101.8,824.661a2.82,2.82,0,0,1,2.789-2.865,2.738,2.738,0,0,1,1.856.721l-.5.473a2.055,2.055,0,0,0-1.354-.522,2.135,2.135,0,0,0-2.063,2.193,2.112,2.112,0,0,0,2.063,2.167,1.682,1.682,0,0,0,1.809-1.551h-1.6v-.632h2.4c0,1.929-1.039,2.855-2.608,2.855a2.8,2.8,0,0,1-2.789-2.839" transform="translate(-23.897 -821.797)" fill="#de4300"/>
        <rect id="Ret창ngulo_3" data-name="Ret창ngulo 3" width="0.728" height="5.511" transform="translate(87.217 0.097)" fill="#de4300"/>
        <path id="Caminho_11" data-name="Caminho 11" d="M111.83,827.349l-.536-1.415h-2.369l-.536,1.415h-.759l2.1-5.511h.766l2.1,5.511Zm-2.665-2.054h1.889l-.945-2.505Z" transform="translate(-16.024 -821.742)" fill="#de4300"/>
      </g>
      <g id="Grupo_2" data-name="Grupo 2">
        <path id="Caminho_12" data-name="Caminho 12" d="M62.445,820.158a11.752,11.752,0,0,1,11.6-11.862,11.145,11.145,0,0,1,8.782,4.108L80.3,814.424a8.033,8.033,0,0,0-6.23-2.949,8.452,8.452,0,0,0-8.218,8.683,8.363,8.363,0,0,0,8.218,8.582,8.025,8.025,0,0,0,6.23-2.949l2.519,2.021a11.148,11.148,0,0,1-8.782,4.11,11.666,11.666,0,0,1-11.6-11.764" transform="translate(-62.445 -808.296)" fill="#de4300"/>
        <path id="Caminho_13" data-name="Caminho 13" d="M72.062,820.158a11.567,11.567,0,1,1,11.531,11.764,11.655,11.655,0,0,1-11.531-11.764m19.716,0a8.4,8.4,0,0,0-8.185-8.683c-4.639,0-8.117,3.978-8.117,8.683a8.162,8.162,0,1,0,16.3,0" transform="translate(-49.462 -808.296)" fill="#de4300"/>
        <path id="Caminho_14" data-name="Caminho 14" d="M95.743,831.3l-5.866-8.516H87.292V831.3H83.88V808.466h8.714c5.005,0,7.026,3.612,7.026,7.224,0,3.281-1.988,6.728-5.8,7.092l6,8.516Zm-8.451-19.719v8.22h4.474c3.147,0,4.439-1.692,4.439-4.11,0-2.385-1.424-4.11-3.645-4.11Z" transform="translate(-33.508 -808.069)" fill="#de4300"/>
        <path id="Caminho_15" data-name="Caminho 15" d="M92.524,823.444V808.466h3.412v14.946a5.021,5.021,0,1,0,10.041,0V808.466h3.415v14.979c0,5.236-3.91,8.251-8.451,8.251s-8.418-3.015-8.418-8.251" transform="translate(-21.839 -808.069)" fill="#de4300"/>
        <path id="Caminho_16" data-name="Caminho 16" d="M129.02,831.3h-3.38l-2.021-16.569-6.793,14.051h-2.916l-6.859-14.051L105.028,831.3h-3.38l2.783-22.832h3.049l7.854,16.437,7.854-16.437h3.049Z" transform="translate(-9.522 -808.068)" fill="#de4300"/>
      </g>
    </g>
  </g>
  <g id="Grupo_7" data-name="Grupo 7" transform="translate(0 0)">
    <g id="Grupo_6" data-name="Grupo 6">
      <path id="Caminho_17" data-name="Caminho 17" d="M53.715,858.706a5.026,5.026,0,0,0,5.024,5.024V853.679a5.027,5.027,0,0,0-5.024,5.027m22.611-10.051a5.027,5.027,0,0,1-5.024-5.024,10.046,10.046,0,0,1-10.051,10.049H58.739a5.025,5.025,0,0,1,0,10.051h2.512a20.106,20.106,0,0,0,20.1-20.1,5.027,5.027,0,0,1-5.027,5.024M71.3,843.631H81.353a5.025,5.025,0,1,0-10.051,0m0-20.1a5.025,5.025,0,1,0,10.051,0ZM42.98,808.419c-.059.056-.12.106-.181.162a1.876,1.876,0,0,0-.172.164h0v0c-.2.186-.411.383-.606.578a20.007,20.007,0,0,0-5.884,13.954c-.007.087-.007.172-.007.256v20.1a5.025,5.025,0,0,0,10.051,0H36.125a5.025,5.025,0,1,1,10.051,0v-20.1a10.008,10.008,0,0,1,3.283-7.426c.035-.031.063-.056.094-.087.061-.054.12-.111.176-.164v0a5.024,5.024,0,0,0-6.749-7.428m15.759-4.989a5.025,5.025,0,0,1,0,10.051h2.512A10.053,10.053,0,0,1,71.3,823.529a5.026,5.026,0,0,1,10.046-.256,20.1,20.1,0,0,0-20.1-19.843Z" transform="translate(-36.125 -803.43)" fill="#de4300"/>
    </g>
  </g>
</svg>
