<svg id="Grupo_173" data-name="Grupo 173" xmlns="http://www.w3.org/2000/svg" xmlns:xlink="http://www.w3.org/1999/xlink" width="225.871" height="75.105" viewBox="0 0 225.871 75.105">
  <defs>
    <clipPath id="clip-path">
      <path id="Caminho_18" data-name="Caminho 18" d="M58.033,872.277a6.261,6.261,0,0,0,6.258,6.258V866.016a6.261,6.261,0,0,0-6.258,6.261M86.2,859.758a6.261,6.261,0,0,1-6.258-6.258A12.513,12.513,0,0,1,67.42,866.016H64.291a6.259,6.259,0,0,1,0,12.518H67.42A25.043,25.043,0,0,0,92.456,853.5a6.261,6.261,0,0,1-6.261,6.258M79.938,853.5H92.456a6.259,6.259,0,1,0-12.518,0m0-25.037a6.259,6.259,0,1,0,12.518,0Zm-35.275-18.82c-.073.07-.149.132-.225.2a2.343,2.343,0,0,0-.214.2h-.006v-.006c-.255.231-.512.477-.755.72a24.918,24.918,0,0,0-7.329,17.38c-.009.108-.009.214-.009.319V853.5a6.259,6.259,0,0,0,12.518,0H36.125a6.259,6.259,0,1,1,12.518,0V828.464a12.465,12.465,0,0,1,4.089-9.249c.044-.038.079-.07.117-.108.076-.067.149-.138.22-.2V818.9a6.258,6.258,0,0,0-8.406-9.252m19.628-6.214a6.259,6.259,0,0,1,0,12.518H67.42a12.522,12.522,0,0,1,12.518,12.516,6.26,6.26,0,0,1,12.513-.319A25.03,25.03,0,0,0,67.42,803.43Z" transform="translate(-36.125 -803.43)" fill="#fff"/>
    </clipPath>
  </defs>
  <g id="Grupo_4" data-name="Grupo 4" transform="translate(77.036 14.242)">
    <g id="Grupo_3" data-name="Grupo 3">
      <g id="Grupo_1" data-name="Grupo 1" transform="translate(18.159 39.516)">
        <path id="Caminho_1" data-name="Caminho 1" d="M73.449,826.771a1.925,1.925,0,0,1-2,1.935h-2.8v-6.866h2.582a1.682,1.682,0,0,1,1.853,1.753,1.435,1.435,0,0,1-.869,1.455,1.706,1.706,0,0,1,1.235,1.724m-2.23-4.095H69.556V824.7h1.692a1.014,1.014,0,0,0-.029-2.022m.041,5.192a1.162,1.162,0,0,0,1.285-1.177A1.148,1.148,0,0,0,71.31,825.5H69.556v2.371Z" transform="translate(-68.649 -821.719)" fill="#fff"/>
        <rect id="Ret창ngulo_2" data-name="Ret창ngulo 2" width="0.907" height="6.864" transform="translate(9.85 0.121)" fill="#fff"/>
        <path id="Caminho_2" data-name="Caminho 2" d="M74.036,825.365A3.476,3.476,0,1,1,77.5,828.9a3.5,3.5,0,0,1-3.465-3.536m6.047,0a2.574,2.574,0,1,0-2.582,2.7,2.656,2.656,0,0,0,2.582-2.7" transform="translate(-58.269 -821.797)" fill="#fff"/>
        <path id="Caminho_3" data-name="Caminho 3" d="M82.852,821.838v.837H80.76V828.7h-.906v-6.027H77.762v-.837Z" transform="translate(-51.09 -821.717)" fill="#fff"/>
        <path id="Caminho_4" data-name="Caminho 4" d="M82.017,827.866h3.248v.837H81.12v-6.864h4.045v.837H82.017v2.231h2.75v.846h-2.75Z" transform="translate(-44.618 -821.718)" fill="#fff"/>
        <path id="Caminho_5" data-name="Caminho 5" d="M84.04,825.365a3.533,3.533,0,0,1,3.486-3.568,3.349,3.349,0,0,1,2.582,1.168l-.659.556a2.545,2.545,0,0,0-1.923-.887,2.718,2.718,0,0,0,0,5.429,2.542,2.542,0,0,0,1.923-.884l.659.556a3.346,3.346,0,0,1-2.582,1.165,3.505,3.505,0,0,1-3.486-3.536" transform="translate(-38.992 -821.797)" fill="#fff"/>
        <path id="Caminho_6" data-name="Caminho 6" d="M91.818,821.838h.907V828.7h-.877l-3.168-5.23v5.23h-.907v-6.864h.9l3.148,5.21Z" transform="translate(-31.8 -821.717)" fill="#fff"/>
        <path id="Caminho_7" data-name="Caminho 7" d="M91.175,825.365a3.478,3.478,0,1,1,3.468,3.536,3.507,3.507,0,0,1-3.468-3.536m6.047,0a2.573,2.573,0,1,0-2.579,2.7,2.653,2.653,0,0,0,2.579-2.7" transform="translate(-25.244 -821.797)" fill="#fff"/>
        <path id="Caminho_8" data-name="Caminho 8" d="M96.176,827.866h2.809v.837H95.269v-6.864h.907Z" transform="translate(-17.355 -821.718)" fill="#fff"/>
        <path id="Caminho_9" data-name="Caminho 9" d="M97.868,825.365a3.478,3.478,0,1,1,3.468,3.536,3.507,3.507,0,0,1-3.468-3.536m6.047,0a2.573,2.573,0,1,0-2.579,2.7,2.653,2.653,0,0,0,2.579-2.7" transform="translate(-12.347 -821.797)" fill="#fff"/>
        <path id="Caminho_10" data-name="Caminho 10" d="M101.8,825.365a3.512,3.512,0,0,1,3.474-3.568,3.41,3.41,0,0,1,2.312.9l-.626.589a2.559,2.559,0,0,0-1.686-.65,2.66,2.66,0,0,0-2.57,2.731,2.631,2.631,0,0,0,2.57,2.7,2.1,2.1,0,0,0,2.254-1.932h-1.993v-.787h2.988c0,2.4-1.294,3.556-3.249,3.556a3.49,3.49,0,0,1-3.474-3.536" transform="translate(-4.772 -821.797)" fill="#fff"/>
        <rect id="Ret창ngulo_3" data-name="Ret창ngulo 3" width="0.907" height="6.864" transform="translate(108.629 0.121)" fill="#fff"/>
        <path id="Caminho_11" data-name="Caminho 11" d="M112.861,828.7l-.667-1.762h-2.95l-.667,1.762h-.945l2.611-6.863h.954l2.611,6.863Zm-3.319-2.558H111.9l-1.177-3.12Z" transform="translate(6.466 -821.719)" fill="#fff"/>
      </g>
      <g id="Grupo_2" data-name="Grupo 2">
        <path id="Caminho_12" data-name="Caminho 12" d="M62.445,823.071A14.637,14.637,0,0,1,76.889,808.3a13.882,13.882,0,0,1,10.938,5.116l-3.138,2.517a10,10,0,0,0-7.759-3.673c-5.778,0-10.235,4.955-10.235,10.815A10.416,10.416,0,0,0,76.93,833.76a10,10,0,0,0,7.759-3.673l3.138,2.517a13.885,13.885,0,0,1-10.938,5.119,14.531,14.531,0,0,1-14.444-14.652" transform="translate(-62.445 -808.296)" fill="#fff"/>
        <path id="Caminho_13" data-name="Caminho 13" d="M72.062,823.071a14.407,14.407,0,1,1,14.362,14.652,14.516,14.516,0,0,1-14.362-14.652m24.557,0c0-5.86-4.373-10.815-10.194-10.815-5.778,0-10.11,4.955-10.11,10.815,0,5.819,4.332,10.689,10.11,10.689a10.381,10.381,0,0,0,10.194-10.689" transform="translate(-43.914 -808.296)" fill="#fff"/>
        <path id="Caminho_14" data-name="Caminho 14" d="M98.655,836.9,91.349,826.3H88.13V836.9H83.88V808.466H94.733c6.234,0,8.751,4.5,8.751,9,0,4.086-2.476,8.38-7.224,8.833l7.472,10.607ZM88.13,812.344v10.239H93.7c3.919,0,5.529-2.107,5.529-5.119,0-2.971-1.774-5.119-4.54-5.119Z" transform="translate(-21.142 -807.971)" fill="#fff"/>
        <path id="Caminho_15" data-name="Caminho 15" d="M92.524,827.122V808.466h4.25v18.615c0,4.332,2.889,6.272,6.234,6.272s6.272-1.941,6.272-6.272V808.466h4.253v18.656c0,6.521-4.87,10.276-10.525,10.276s-10.484-3.755-10.484-10.276" transform="translate(-4.485 -807.971)" fill="#fff"/>
        <path id="Caminho_16" data-name="Caminho 16" d="M135.74,836.9h-4.21l-2.517-20.637-8.461,17.5h-3.633l-8.544-17.5L105.858,836.9h-4.21l3.467-28.438h3.8l9.782,20.472,9.782-20.472h3.8Z" transform="translate(13.095 -807.971)" fill="#fff"/>
      </g>
    </g>
  </g>
  <g id="Grupo_7" data-name="Grupo 7" transform="translate(0 0)">
    <g id="Grupo_6" data-name="Grupo 6">
      <path id="Caminho_17" data-name="Caminho 17" d="M58.033,872.277a6.261,6.261,0,0,0,6.258,6.258V866.016a6.261,6.261,0,0,0-6.258,6.261M86.2,859.758a6.261,6.261,0,0,1-6.258-6.258A12.513,12.513,0,0,1,67.42,866.016H64.291a6.259,6.259,0,0,1,0,12.518H67.42A25.043,25.043,0,0,0,92.456,853.5a6.261,6.261,0,0,1-6.261,6.258M79.938,853.5H92.456a6.259,6.259,0,1,0-12.518,0m0-25.037a6.259,6.259,0,1,0,12.518,0Zm-35.275-18.82c-.073.07-.149.132-.225.2a2.343,2.343,0,0,0-.214.2h-.006v-.006c-.255.231-.512.477-.755.72a24.918,24.918,0,0,0-7.329,17.38c-.009.108-.009.214-.009.319V853.5a6.259,6.259,0,0,0,12.518,0H36.125a6.259,6.259,0,1,1,12.518,0V828.464a12.465,12.465,0,0,1,4.089-9.249c.044-.038.079-.07.117-.108.076-.067.149-.138.22-.2V818.9a6.258,6.258,0,0,0-8.406-9.252m19.628-6.214a6.259,6.259,0,0,1,0,12.518H67.42a12.522,12.522,0,0,1,12.518,12.516,6.26,6.26,0,0,1,12.513-.319A25.03,25.03,0,0,0,67.42,803.43Z" transform="translate(-36.125 -803.43)" fill="#fff"/>
    </g>
  </g>
</svg>
