<svg xmlns="http://www.w3.org/2000/svg" width="83" height="83" viewBox="0 0 83 83">
  <g id="Grupo_181" data-name="Grupo 181" transform="translate(-1791.184 -1019.184)">
    <rect id="Retângulo_70" data-name="Retângulo 70" width="83" height="83" rx="14" transform="translate(1791.184 1019.184)" fill="#019d1b"/>
    <path id="Icon_awesome-whatsapp" data-name="Icon awesome-whatsapp" d="M44.563,9.866A25.981,25.981,0,0,0,3.685,41.209L0,54.663l13.77-3.615a25.893,25.893,0,0,0,12.413,3.159h.012A26.222,26.222,0,0,0,52.413,28.234a26.075,26.075,0,0,0-7.85-18.368ZM26.195,49.831a21.549,21.549,0,0,1-11-3.007l-.784-.468L6.247,48.5,8.423,40.53l-.515-.819A21.629,21.629,0,1,1,48.026,28.234a21.828,21.828,0,0,1-21.831,21.6Zm11.84-16.168c-.643-.328-3.837-1.9-4.434-2.106s-1.03-.328-1.462.328-1.673,2.106-2.059,2.55-.76.491-1.4.164c-3.814-1.907-6.318-3.4-8.833-7.722-.667-1.147.667-1.065,1.907-3.545A1.2,1.2,0,0,0,21.69,22.2c-.164-.328-1.462-3.521-2-4.82-.526-1.264-1.065-1.088-1.462-1.111-.374-.023-.807-.023-1.24-.023a2.4,2.4,0,0,0-1.731.807,7.292,7.292,0,0,0-2.27,5.417c0,3.194,2.328,6.283,2.644,6.715s4.574,6.984,11.091,9.8c4.118,1.778,5.733,1.93,7.792,1.626,1.252-.187,3.837-1.568,4.376-3.089a5.428,5.428,0,0,0,.374-3.089C39.111,34.142,38.678,33.978,38.034,33.663Z" transform="translate(1807.628 1032.13)" fill="#fff"/>
  </g>
</svg>
